User Type,Username,Date,Text
,adjlatino,2013-02-27T20:35Z,compartan please 160 vs 15 no solo se la roben
,rodrigo1982,2013-02-28T23:28Z,grcias amigo....saludos....
,plumasdepollo,2013-03-02T19:39Z,"gracias por el aporte pero, como es que nunca ponen el bitrate del video?"
,cgolf,2013-03-04T18:59Z,gracias... espectaculares todas las peliculas!!!
,MarioHC86,2013-03-05T19:09Z,"Muchas Gracias, la bajo y la compartiré por un par de semanas!"
,mncr,2013-03-19T02:41Z,Visitanos en faceb00k y tambien siguenos en twitter ...:::PeliculasbyMNCR:::... más estrenos y clasicos.
,angel_malo,2013-03-26T17:29Z,"Gracias, en excelente calidad y para que tengan mas datos aquí va:
Video
Format            : AVC
Format/Info     : Advanced Video Codec
Format profile  : High@L4.0
Format settings, CABAC           : Yes
Format settings, ReFrames        : 2 frames
Codec ID                         : V_MPEG4/ISO/AVC
Duration                         : 1h 37mn
Bit rate                         : 2 182 Kbps
Width                            : 1 920 pixels
Height                           : 1 080 pixels
Display aspect ratio             : 16:9
Frame rate                       : 23.976 fps
Color space                      : YUV
Bit depth                        : 8 bits
Scan type                        : Progressive
Bits/(Pixel*Frame)               : 0.044
Stream size                      : 1.48 GiB (67%)
Language                         : Spanish

Audio #1
ID                               : 2
Format                           : AC-3
Format/Info                      : Audio Coding 3
Mode extension                : CM (complete main)
Muxing mode                   : Header stripping
Codec ID                         : A_AC3
Duration                         : 1h 37mn
Bit rate mode                    : Constant
Bit rate                         : 640 Kbps
Channel(s)                       : 6 channels
Channel positions                : Front: L C R, 
Side: L R, LFE
Sampling rate                    : 48.0 KHz
Bit depth                        : 16 bits
Compression mode                 : Lossy
Stream size                      : 445 MiB (20%)
Language                         : Spanish

Audio #2
ID                               : 3
Format                           : AC-3
Format/Info                      : Audio Coding 3
Mode extension                   : CM (complete main)
Muxing mode                      : Header stripping
Codec ID                         : A_AC3
Duration                         : 1h 37mn
Bit rate mode                    : Constant
Bit rate                         : 384 Kbps
Channel(s)                       : 6 channels
Channel positions                : Front: L C R, Side: L R, LFE
Sampling rate                    : 48.0 KHz
Bit depth                        : 16 bits
Compression mode                 : Lossy
Stream size                      : 267 MiB (12%)
Ingles AC3 5.1"
